<svg width="512" height="512" viewBox="0 0 512 512" xmlns="http://www.w3.org/2000/svg">
  <rect width="512" height="512" rx="96" fill="#171233"/>
  <rect width="512" height="512" rx="96" fill="url(#bgGrad)" fill-opacity="0.55"/>
  <defs>
    <linearGradient id="bgGrad" x1="0" y1="0" x2="512" y2="512" gradientUnits="userSpaceOnUse">
      <stop offset="0" stop-color="#4338CA"/>
      <stop offset="1" stop-color="#0F766E"/>
    </linearGradient>
  </defs>

  <path d="M256 76 L392 128 L392 246 C392 344 336 410 256 448 C176 410 120 344 120 246 L120 128 Z"
        fill="#F8FAFC" stroke="#0B0A1F" stroke-width="6"/>

  <g stroke="#0EA5B7" stroke-width="9" stroke-linecap="round">
    <line x1="196" y1="292" x2="256" y2="196"/>
    <line x1="256" y1="196" x2="322" y2="288"/>
    <line x1="196" y1="292" x2="322" y2="288"/>
  </g>
  <g fill="#0F172A">
    <circle cx="256" cy="196" r="22"/>
    <circle cx="196" cy="292" r="22"/>
    <circle cx="322" cy="288" r="22"/>
  </g>
  <g fill="#22D3EE">
    <circle cx="256" cy="196" r="13"/>
    <circle cx="196" cy="292" r="13"/>
    <circle cx="322" cy="288" r="13"/>
  </g>
</svg>
